<svg width="28" height="32" viewBox="0 0 28 32" fill="none" xmlns="http://www.w3.org/2000/svg">
<rect x="1.4759" y="0.801099" width="25.3332" height="30.3976" rx="5.76506" fill="#181615"/>
<rect x="1.4759" y="0.801099" width="25.3332" height="30.3976" rx="5.76506" stroke="white" stroke-width="1.04819"/>
<path d="M14.9201 16.0001L10.7315 11.8118C10.4991 11.5792 10.3828 11.2871 10.3828 10.9357C10.3828 10.5844 10.4991 10.2923 10.7315 10.0597C10.9642 9.82718 11.2562 9.71094 11.6076 9.71094C11.959 9.71094 12.251 9.82718 12.4837 10.0597L17.5414 15.1174C17.6646 15.2407 17.7546 15.3776 17.8114 15.5281C17.8683 15.6783 17.8968 15.8357 17.8968 16.0001C17.8968 16.1645 17.8683 16.3218 17.8114 16.4721C17.7546 16.6226 17.6646 16.7595 17.5414 16.8828L12.4837 21.9405C12.251 22.173 11.959 22.2893 11.6076 22.2893C11.2562 22.2893 10.9642 22.173 10.7315 21.9405C10.4991 21.7079 10.3828 21.4158 10.3828 21.0644C10.3828 20.7131 10.4991 20.421 10.7315 20.1884L14.9201 16.0001Z" fill="#65615E"/>
</svg>
